# xmcd
#
# Track frame offsets:
#	150
#	15717
#	34965
#	51425
#	71460
#	85555
#	94375
#	124822
#	138817
#	153792
#	167167
#	179135
#
# Disc length: 2547 seconds
#
# Revision: 0
# Processed by: cddbd v1.5.1PL0 Copyright (c) Steve Scherf et al.
# Submitted via: dBpowerAMP V4.0
#
DISCID=9f09f10c
DTITLE=David Migden - Little Stranger
DYEAR=2005
DGENRE=Blues
TTITLE0=Bretheren
TTITLE1=Round Here
TTITLE2=Sunset
TTITLE3=Pennies
TTITLE4=Just a Ride
TTITLE5=Puppetry
TTITLE6=Hold On
TTITLE7=Roast Chicken
TTITLE8=Easy Money
TTITLE9=Stay Right Here
TTITLE10=Bar Room
TTITLE11=Mountain Song
EXTD=
EXTT0=
EXTT1=
EXTT2=
EXTT3=
EXTT4=
EXTT5=
EXTT6=
EXTT7=
EXTT8=
EXTT9=
EXTT10=
EXTT11=
PLAYORDER=
